PathFileType	4	(X/Y/Z)	TVC_16_BWA5_walk_RCNL2025.trc
DataRate	CameraRate	NumFrames	NumMarkers	Units	OrigDataRate	OrigDataStartFrame	OrigNumFrames
100	100	10	27	mm	100	168	671
Frame#	Time	R_Shoulder			L_Shoulder			C7			J_Notch			R_Elbow			L_Elbow			R_Wrist			L_Wrist			R_Asis			L_Asis			R_Psis			L_Psis			Sacral			Thoracic			Sternum			R_Thigh_Lateral			R_Knee_Lateral			R_Shank_Lateral			R_Ankle_Lateral			R_Heel			R_Toe			L_Thigh_Lateral			L_Knee_Lateral			L_Shank_Lateral			L_Ankle_Lateral			L_Heel			L_Toe		
		X1	Y1	Z1	X2	Y2	Z2	X3	Y3	Z3	X4	Y4	Z4	X5	Y5	Z5	X6	Y6	Z6	X7	Y7	Z7	X8	Y8	Z8	X9	Y9	Z9	X10	Y10	Z10	X11	Y11	Z11	X12	Y12	Z12	X13	Y13	Z13	X14	Y14	Z14	X15	Y15	Z15	X16	Y16	Z16	X17	Y17	Z17	X18	Y18	Z18	X19	Y19	Z19	X20	Y20	Z20	X21	Y21	Z21	X22	Y22	Z22	X23	Y23	Z23	X24	Y24	Z24	X25	Y25	Z25	X26	Y26	Z26	X27	Y27	Z27
168	1.67000000	-645.103333	1283.171143	9.263990	-674.419617	1311.053955	-314.456421	-716.915955	1352.050537	-137.451630	-587.550110	1215.668213	-155.918594	-750.605652	984.050049	73.587502	-657.759644	989.856934	-399.368286	-691.173431	759.646179	89.955208	-562.943939	801.126740	-341.050171	-628.405396	865.955811	-64.794838	-693.734314	884.041931	-319.530334	-818.801697	911.499756	-100.152931	-839.672485	914.223328	-205.391495	-829.237091	912.861542	-152.772213	-801.136841	1093.700439	-155.445374	-574.118713	1021.290955	-193.035339	-629.623596	601.693726	43.050976	-561.489197	439.673553	-41.430855	-562.791382	287.962189	25.118448	-571.548523	62.828884	-33.310890	-623.266907	49.211037	-79.246468	-452.161957	45.400444	-81.149826	-717.875977	584.554504	-388.802063	-701.164246	407.478638	-290.550140	-776.475281	271.459869	-348.368958	-870.772949	67.612785	-269.986511	-915.768188	72.271942	-226.173141	-741.235901	40.211102	-230.467468
169	1.68000000	-640.766846	1283.431030	11.125844	-671.116272	1311.706665	-312.455505	-713.051270	1352.498413	-135.238724	-583.737610	1216.138184	-154.339813	-745.261597	983.994202	75.436134	-655.302795	990.448059	-397.485016	-684.471191	759.910217	90.776436	-560.937500	801.374756	-339.440750	-624.481873	866.580872	-63.191643	-689.961914	884.594177	-317.883850	-814.752075	911.917480	-98.435562	-836.064758	914.796143	-203.501053	-825.408417	913.356812	-150.968307	-797.276245	1094.117065	-153.401794	-570.357361	1021.869324	-191.736420	-625.562988	602.107910	44.133358	-558.309509	439.706024	-41.193356	-558.433228	287.901733	24.761385	-570.994751	62.779442	-33.315006	-622.829285	49.474754	-79.171738	-451.540955	44.838768	-81.469002	-715.411621	585.135986	-387.398285	-699.701233	407.791168	-289.619995	-776.061096	272.309753	-347.667694	-870.590881	68.532372	-269.552673	-915.471313	73.376526	-225.594955	-741.126465	40.145901	-230.453720
170	1.69000000	-636.511658	1283.823486	13.008042	-667.756714	1312.417236	-310.442688	-709.203674	1353.024902	-133.048340	-579.926086	1216.711548	-152.687073	-739.931702	984.042908	77.296951	-652.802063	991.119202	-395.596375	-677.700470	760.319336	91.642460	-558.969574	801.687012	-337.774017	-620.564697	867.268127	-61.503407	-686.088684	885.248840	-316.176575	-810.701416	912.408386	-96.720917	-832.414856	915.456238	-201.619858	-821.558136	913.932312	-149.170387	-793.406189	1094.596924	-151.351135	-566.570618	1022.545471	-190.299133	-621.775330	602.486816	45.340069	-555.267578	439.742828	-40.898319	-554.743774	287.806458	24.576765	-570.459290	62.740326	-33.287506	-622.396790	49.700596	-79.064415	-450.986450	44.459450	-81.751381	-713.015991	585.867188	-386.021881	-698.261780	408.211578	-288.710297	-775.576843	273.267273	-347.019714	-870.370483	69.535904	-269.170624	-915.144775	74.572906	-225.083054	-741.016296	40.082771	-230.445023
171	1.70000000	-632.337830	1284.343262	14.911399	-664.346375	1313.182617	-308.418488	-705.376892	1353.625610	-130.880066	-576.116638	1217.384888	-150.961502	-734.624451	984.192688	79.167320	-650.248779	991.869690	-393.709259	-670.882385	760.868134	92.555286	-557.032349	802.065674	-336.046555	-616.639465	868.003052	-59.744427	-682.125488	886.004700	-314.418274	-806.645264	912.966248	-95.001396	-828.718872	916.194702	-199.743423	-817.682068	914.580475	-147.372410	-789.527893	1095.135742	-149.292526	-562.757935	1023.314331	-188.727875	-618.218872	602.834778	46.641083	-552.403381	439.772766	-40.532383	-551.848145	287.654999	24.619713	-569.963684	62.700043	-33.226292	-621.992493	49.885437	-78.927727	-450.515411	44.223991	-81.982887	-710.641113	586.745117	-384.678436	-696.817871	408.735718	-287.831696	-774.989502	274.326965	-346.425781	-870.107056	70.629044	-268.844086	-914.783081	75.869156	-224.639908	-740.904907	40.023582	-230.442642
172	1.71000000	-628.243896	1284.983398	16.836517	-660.891663	1313.997681	-306.383240	-701.574280	1354.294800	-128.732971	-572.310730	1218.153076	-149.165039	-729.347046	984.438354	81.044930	-647.634949	992.695984	-391.829010	-664.037231	761.549103	93.516441	-555.117126	802.510345	-334.255310	-612.695557	868.770813	-57.929008	-678.085266	886.858215	-312.619141	-802.580261	913.583923	-93.270218	-824.974060	917.001221	-197.867767	-813.777161	915.292572	-145.568993	-785.643066	1095.728027	-147.225098	-558.919006	1024.169067	-187.028488	-614.876770	603.150757	48.002823	-549.748779	439.787689	-40.084030	-549.779236	287.435577	24.919077	-569.523376	62.649376	-33.130165	-621.634521	50.029495	-78.764725	-450.137054	44.096355	-82.154587	-708.230164	587.760132	-383.370514	-695.337097	409.357147	-286.993805	-774.277649	275.482910	-345.884766	-869.795654	71.817421	-268.572937	-914.379883	77.273529	-224.263046	-740.791077	39.970207	-230.447495
173	1.72000000	-624.226807	1285.734497	18.783627	-657.399597	1314.856201	-304.337189	-697.798950	1355.025269	-126.605621	-568.509766	1219.008789	-147.300552	-724.105713	984.773010	82.927757	-644.953796	993.592224	-389.959229	-657.184143	762.352539	94.526913	-553.214661	803.018036	-332.397736	-608.726318	869.557312	-56.071537	-673.983093	887.803711	-310.789642	-798.504333	914.253174	-91.521881	-821.179138	917.864136	-195.989670	-809.841736	916.058655	-143.755775	-781.753662	1096.366943	-145.148163	-555.054565	1025.101318	-185.208435	-611.758118	603.427063	49.391815	-547.326172	439.782104	-39.544800	-548.482666	287.148468	25.474302	-569.147522	62.581627	-32.999027	-621.335083	50.135555	-78.578171	-449.853088	44.044876	-82.262764	-705.725281	588.896790	-382.098877	-693.783325	410.067505	-286.205353	-773.431335	276.729279	-345.393829	-869.431030	73.106598	-268.353699	-913.927429	78.794418	-223.945511	-740.672607	39.924236	-230.460144
174	1.73000000	-620.282410	1286.585693	20.752443	-653.878052	1315.750488	-302.280548	-694.053711	1355.808594	-124.496277	-564.715576	1219.943237	-145.371811	-718.905579	985.188293	84.813972	-642.199707	994.550232	-388.101746	-650.340729	763.266907	95.587154	-551.314972	803.583710	-330.472015	-604.728943	870.350403	-54.186443	-669.835449	888.833191	-308.940216	-794.417053	914.965210	-89.752502	-817.334595	918.770935	-194.107025	-805.875824	916.868073	-141.929764	-777.862244	1097.045288	-143.061371	-551.165894	1026.101685	-183.276703	-608.892700	603.650452	50.778294	-545.147339	439.752960	-38.910141	-547.832275	286.805481	26.257214	-568.838989	62.492638	-32.833984	-621.100159	50.208176	-78.370567	-449.658539	44.043236	-82.308456	-703.074890	590.135742	-380.863922	-692.117676	410.856598	-285.474213	-772.449402	278.060516	-344.948730	-869.006897	74.502083	-268.180084	-913.416443	80.440308	-223.676727	-740.546509	39.886646	-230.480835
175	1.74000000	-616.405334	1287.524536	22.742081	-650.335510	1316.671997	-300.213684	-690.341187	1356.635864	-122.403038	-560.930298	1220.945801	-143.383591	-713.750549	985.674622	86.701897	-639.368896	995.560059	-386.256805	-643.523010	764.278961	96.697044	-549.407745	804.200409	-328.477112	-600.704102	871.140442	-52.287998	-665.659912	889.936584	-307.080872	-790.319214	915.710571	-87.960045	-813.442566	919.708252	-192.218918	-801.880890	917.709412	-140.089481	-773.971802	1097.754883	-140.964859	-547.255005	1027.159668	-181.243835	-606.320801	603.805908	52.139290	-543.213501	439.699280	-38.179836	-547.652832	286.427063	27.218359	-568.595825	62.380707	-32.637348	-620.929871	50.252941	-78.144249	-449.543396	44.070702	-82.296509	-700.239136	591.455811	-379.666321	-690.299194	411.712921	-284.807495	-771.336182	279.471527	-344.544281	-868.515991	76.009346	-268.043762	-912.835754	82.219833	-223.443619	-740.408875	39.857544	-230.509384
176	1.75000000	-612.589844	1288.537354	24.750992	-646.780823	1317.611816	-298.137207	-686.663757	1357.497070	-120.324028	-557.156311	1222.004883	-141.341614	-708.643372	986.221191	88.589935	-636.459229	996.610107	-384.423004	-636.745300	765.374176	97.855930	-547.482452	804.859833	-326.412994	-596.654968	871.920776	-50.389874	-661.474731	891.101990	-305.221069	-786.213379	916.479492	-86.144333	-809.507202	920.662598	-190.325699	-797.860291	918.571045	-138.235016	-770.085754	1098.487183	-138.859360	-543.324951	1028.264282	-179.121933	-604.079407	603.882324	53.460835	-541.516541	439.621948	-37.357788	-547.748352	286.037170	28.295885	-568.412231	62.246288	-32.412548	-620.819763	50.275845	-77.901512	-449.494080	44.111816	-82.234497	-697.192871	592.835815	-378.507172	-688.286194	412.624054	-284.211792	-770.096802	280.957825	-344.174652	-867.949463	77.633842	-267.935394	-912.172119	84.141792	-223.231720	-740.255188	39.836102	-230.545181
177	1.76000000	-608.829895	1289.609497	26.776945	-643.223389	1318.560425	-296.052185	-683.023682	1358.381836	-118.257530	-553.396484	1223.108154	-139.252594	-703.585754	986.816284	90.476501	-633.470703	997.687866	-382.597717	-630.019958	766.536743	99.062576	-545.528259	805.552521	-324.280701	-592.586975	872.687744	-48.504566	-657.298096	892.315735	-303.369263	-782.103210	917.262146	-84.306969	-805.534241	921.620422	-188.428833	-793.818726	919.441284	-136.367901	-766.207886	1099.233521	-136.746323	-539.379395	1029.403809	-176.924591	-602.188293	603.878418	54.738911	-540.039917	439.523041	-36.451450	-547.929077	285.657898	29.424717	-568.280151	62.091663	-32.164021	-620.761963	50.282757	-77.644783	-449.495361	44.155773	-82.131660	-693.926208	594.256226	-377.387817	-686.036926	413.577026	-283.693115	-768.732727	282.515350	-343.833862	-867.296570	79.381012	-267.845459	-911.409912	86.215195	-223.026550	-740.080383	39.820629	-230.586884
